<svg width="25" height="19" viewBox="0 0 25 19" fill="none" xmlns="http://www.w3.org/2000/svg">
<path d="M1.27815 18.4818H5.92886C6.63351 18.4818 7.20674 17.9085 7.20674 17.2036V17.1965L11.6576 18.6705C12.3218 18.8904 13.0069 18.9999 13.6895 18.9999C14.6408 18.9999 15.5882 18.7878 16.4707 18.3669L23.4309 14.9626C23.8623 14.7516 24.1855 14.3853 24.3416 13.9307C24.4972 13.4764 24.4668 12.9887 24.2555 12.557C23.8203 11.6682 22.7425 11.2989 21.8529 11.7323L17.8767 13.6719C17.6807 12.8597 16.9497 12.2539 16.0783 12.2539H13.2964L12.3134 11.7299C11.3806 11.2324 10.3289 10.9695 9.27236 10.9695H7.20674V10.9383C7.20674 10.2337 6.63351 9.66016 5.92886 9.66016H1.27815C0.573226 9.66043 0 10.2337 0 10.9383V17.2036C0 17.9083 0.573226 18.4818 1.27815 18.4818ZM9.27236 12.0557C10.1513 12.0557 11.0263 12.2746 11.8021 12.6884L12.9059 13.2771C12.9124 13.2806 12.9192 13.2817 12.926 13.2847C12.9499 13.2964 12.9748 13.3053 13.0006 13.3135C13.015 13.3181 13.0292 13.3235 13.0438 13.3268C13.0693 13.3325 13.0957 13.3344 13.1226 13.3363C13.1353 13.3371 13.1484 13.3409 13.1611 13.3409C13.163 13.3409 13.1649 13.3401 13.1671 13.3401H16.078C16.5003 13.3401 16.8438 13.6839 16.8438 14.108C16.8438 14.5303 16.5 14.874 16.078 14.874H12.0046C11.7048 14.874 11.4615 15.1173 11.4615 15.4171C11.4615 15.7169 11.7048 15.9602 12.0046 15.9602H16.078C16.7935 15.9602 17.4143 15.5515 17.7225 14.9555L22.3289 12.7085C22.6798 12.5371 23.1075 12.683 23.2799 13.0349C23.3635 13.2057 23.3755 13.3988 23.3138 13.5785C23.2522 13.7583 23.1243 13.9033 22.9535 13.9869L15.9985 17.3888C14.741 17.9881 13.3208 18.0766 11.9989 17.6394L7.20674 16.0523V12.0557H9.27236ZM1.08617 10.9383C1.08617 10.8324 1.17225 10.7463 1.27815 10.7463H5.92886C6.03476 10.7463 6.12057 10.8324 6.12057 10.9383V17.2036C6.12057 17.3095 6.03476 17.3956 5.92886 17.3956H1.27815C1.17225 17.3956 1.08617 17.3095 1.08617 17.2036V10.9383Z" fill="#2C3C53"/>
<path d="M19.5172 0.641825H17.9816C17.6818 0.641825 17.4385 0.885127 17.4385 1.18491V1.85942L15.4364 0.131868C15.2322 -0.0440917 14.9305 -0.0438202 14.7269 0.131868L8.54467 5.46686C8.31766 5.66292 8.2924 6.0056 8.48846 6.23288C8.59599 6.35725 8.74724 6.42106 8.89985 6.42106C9.02557 6.42106 9.15184 6.37762 9.25448 6.28909L9.58821 6.00099V9.9894C9.58821 10.2892 9.83151 10.5325 10.1313 10.5325C10.4311 10.5325 10.6744 10.2892 10.6744 9.9894V5.06362L15.0815 1.2604L19.4908 5.06471V11.4202C19.4908 11.7199 19.7341 11.9632 20.0339 11.9632C20.3337 11.9632 20.577 11.7199 20.577 11.4202V6.00207L20.9099 6.28909C21.1372 6.48488 21.4799 6.45962 21.6756 6.23261C21.8714 6.0056 21.8464 5.66265 21.6194 5.46659L20.0602 4.12137V1.18491C20.0602 0.885127 19.8169 0.641825 19.5172 0.641825ZM18.5247 1.72799H18.9741V3.18373L18.5247 2.79597V1.72799Z" fill="#2C3C53"/>
<path d="M15.0822 10.9001C15.382 10.9001 15.6253 10.6568 15.6253 10.357V9.96949C16.3378 9.76583 16.8548 9.17305 16.8548 8.47492C16.8548 7.60897 16.0595 6.90405 15.0822 6.90405C14.7102 6.90405 14.3957 6.68219 14.3957 6.41934C14.3957 6.15649 14.7102 5.93464 15.0822 5.93464C15.4539 5.93464 15.7081 6.1421 15.7581 6.33734C15.8327 6.62761 16.1271 6.80303 16.4195 6.72809C16.7098 6.65341 16.885 6.35743 16.8103 6.06688C16.6677 5.51239 16.2096 5.09041 15.6253 4.92559V4.53674C15.6253 4.23695 15.382 3.99365 15.0822 3.99365C14.7824 3.99365 14.5391 4.23695 14.5391 4.53674V4.92423C13.8266 5.12789 13.3096 5.72066 13.3096 6.4188C13.3096 7.28475 14.1049 7.98967 15.0822 7.98967C15.4542 7.98967 15.7687 8.21152 15.7687 8.47438C15.7687 8.73723 15.4542 8.95908 15.0822 8.95908C14.7373 8.95908 14.4873 8.77497 14.418 8.59331C14.3113 8.31281 13.9971 8.17323 13.7172 8.27914C13.4369 8.38585 13.2963 8.69976 13.403 8.97999C13.5857 9.4598 14.0137 9.82068 14.5394 9.97003V10.357C14.5391 10.6568 14.7824 10.9001 15.0822 10.9001Z" fill="#2C3C53"/>
</svg>
