<svg width="29" height="28" viewBox="0 0 29 28" fill="none" xmlns="http://www.w3.org/2000/svg">
<path d="M14.2806 0.5C14.0266 0.505536 13.7845 0.609328 13.6054 0.789553L0.837409 13.5575C0.7346 13.6456 0.651102 13.754 0.592156 13.8758C0.53321 13.9977 0.500089 14.1304 0.494871 14.2656C0.489653 14.4009 0.512451 14.5358 0.561834 14.6618C0.611217 14.7878 0.686119 14.9024 0.78184 14.9981C0.87756 15.0939 0.992033 15.1687 1.11807 15.2181C1.24411 15.2675 1.379 15.2903 1.51427 15.2851C1.64953 15.2799 1.78226 15.2467 1.90412 15.1878C2.02598 15.1288 2.13434 15.0453 2.2224 14.9425L4.47828 12.6866V27.0218C4.47932 27.281 4.58272 27.5291 4.76597 27.7124C4.94921 27.8956 5.19745 27.9991 5.4566 28.0001H23.1392C23.3983 27.9991 23.6466 27.8956 23.8298 27.7124C24.0131 27.5291 24.1165 27.281 24.1175 27.0218V12.6885L26.3734 14.9425C26.4614 15.0453 26.5698 15.1288 26.6917 15.1878C26.8135 15.2467 26.9462 15.2799 27.0815 15.2851C27.2168 15.2903 27.3517 15.2675 27.4777 15.2181C27.6038 15.1687 27.7182 15.0939 27.8139 14.9981C27.9097 14.9024 27.9846 14.7878 28.0339 14.6618C28.0833 14.5358 28.1061 14.4009 28.1009 14.2656C28.0957 14.1304 28.0626 13.9977 28.0036 13.8758C27.9447 13.754 27.8612 13.6456 27.7584 13.5575L14.9904 0.789666C14.8975 0.696291 14.7868 0.622469 14.6649 0.572728C14.543 0.522987 14.4123 0.498334 14.2806 0.500113V0.5ZM14.2941 2.87091L22.1532 10.7244V26.0359H18.2246V15.2323C18.2256 14.9718 18.1231 14.7215 17.9396 14.5366C17.7562 14.3517 17.5068 14.2473 17.2463 14.2463H11.3514C11.091 14.2473 10.8416 14.3517 10.6581 14.5366C10.4746 14.7215 10.3721 14.9718 10.3731 15.2323V26.0359H6.44259V10.7225L14.2941 2.87091ZM12.3374 16.2106H16.2584V26.0359H12.3375L12.3374 16.2106Z" fill="#2C3C53"/>
</svg>
